<svg xmlns="http://www.w3.org/2000/svg" viewBox="0 0 1366 768"><defs><style>.cls-1{fill:#027ef2;}.cls-2{font-size:179.14px;}.cls-2,.cls-3,.cls-4,.cls-5,.cls-6,.cls-7,.cls-8,.cls-9{fill:#005df2;font-family:GoudyOldStyleT-Regular, Goudy Old Style;}.cls-3{font-size:180.93px;}.cls-4{font-size:182.27px;}.cls-5{font-size:183.96px;}.cls-6{font-size:182.78px;}.cls-7{font-size:183.21px;}.cls-8{font-size:180.56px;}.cls-9{font-size:181.06px;}.cls-10{fill:none;stroke:#40a9ff;stroke-miterlimit:10;stroke-width:3px;}</style></defs><title>Asset 1</title><g id="Layer_2" data-name="Layer 2"><g id="Layer_1-2" data-name="Layer 1"><rect class="cls-1" width="1366" height="768"/><text class="cls-2" transform="matrix(1.26, -0.21, 0.19, 0.98, 101.23, 198.88)">F</text><text class="cls-3" transform="matrix(1.13, -0.54, 0.47, 0.88, 700.28, 199.21)">R</text><text class="cls-4" transform="matrix(0.7, 0.47, -0.6, 0.8, 38.18, 568.06)">U</text><text class="cls-5" transform="matrix(0.6, -0.57, 0.73, 0.69, 202.45, 426.07)">T</text><text class="cls-6" transform="matrix(0.72, 0.54, -0.64, 0.77, 717.82, 374.19)">a</text><text class="cls-6" transform="matrix(0.72, 0.54, -0.64, 0.77, 910.82, 136.69)">m</text><text class="cls-6" transform="matrix(0.72, 0.54, -0.64, 0.77, 286.82, 148.99)">i</text><text class="cls-7" transform="matrix(0.95, 0.77, -0.67, 0.74, 876.67, 371.59)">L</text><text class="cls-7" transform="matrix(0.74, 0.6, -0.67, 0.74, 432.67, 246.69)">N</text><text class="cls-6" transform="matrix(0.72, 0.54, -0.64, 0.77, 325.83, 451.77)">h</text><text class="cls-3" transform="matrix(0.85, -0.41, 0.47, 0.88, 577.28, 561.6)">C</text><text class="cls-8" transform="matrix(0.85, -0.36, 0.43, 0.9, 931.87, 646.4)">v</text><text class="cls-9" transform="matrix(0.82, -0.41, 0.49, 0.87, 368.43, 726.18)">D</text><text class="cls-2" transform="matrix(1.06, -0.18, 0.19, 0.98, 1143.85, 212.71)">X</text><text class="cls-2" transform="matrix(1.06, -0.18, 0.19, 0.98, 1156.85, 417.09)">q</text><text class="cls-5" transform="matrix(0.6, -0.57, 0.73, 0.69, 1231.45, 665.46)">Y</text><text class="cls-6" transform="matrix(0.72, 0.54, -0.64, 0.77, 693.83, 669.4)">b</text><ellipse class="cls-10" cx="326" cy="296.93" rx="35.17" ry="33.28"/><line class="cls-10" x1="326.28" y1="296.67" x2="326.28" y2="263.65"/><line class="cls-10" x1="361.17" y1="296.67" x2="326.28" y2="296.67"/><path class="cls-10" d="M320.59,275.23l4.8-11.39c.6,0,1.52,1.74,2.12,1.76a40.49,40.49,0,0,0,4.29,10"/><line class="cls-10" x1="352.86" y1="289.85" x2="361.17" y2="296.67"/><line class="cls-10" x1="353.42" y1="304.53" x2="361.17" y2="296.67"/><ellipse class="cls-10" cx="488" cy="96.33" rx="35.17" ry="33.28"/><line class="cls-10" x1="488.28" y1="96.07" x2="488.28" y2="63.06"/><line class="cls-10" x1="523.17" y1="96.07" x2="488.28" y2="96.07"/><path class="cls-10" d="M482.59,74.64l4.8-11.4c.6,0,1.52,1.75,2.12,1.76a40.72,40.72,0,0,0,4.29,10.06"/><line class="cls-10" x1="514.86" y1="89.26" x2="523.17" y2="96.07"/><line class="cls-10" x1="515.42" y1="103.93" x2="523.17" y2="96.07"/><ellipse class="cls-10" cx="210" cy="680.14" rx="35.17" ry="33.28"/><line class="cls-10" x1="210.28" y1="679.87" x2="210.28" y2="646.86"/><line class="cls-10" x1="245.17" y1="679.87" x2="210.28" y2="679.87"/><path class="cls-10" d="M204.59,658.44l4.8-11.39c.6,0,1.52,1.74,2.12,1.76a40.81,40.81,0,0,0,4.29,10.05"/><line class="cls-10" x1="236.86" y1="673.06" x2="245.17" y2="679.87"/><line class="cls-10" x1="237.42" y1="687.73" x2="245.17" y2="679.87"/><ellipse class="cls-10" cx="596" cy="663.1" rx="35.17" ry="33.28"/><line class="cls-10" x1="596.28" y1="662.84" x2="596.28" y2="629.83"/><line class="cls-10" x1="631.17" y1="662.84" x2="596.28" y2="662.84"/><path class="cls-10" d="M590.59,641.41l4.8-11.4c.6,0,1.52,1.75,2.12,1.76a40.72,40.72,0,0,0,4.29,10.06"/><line class="cls-10" x1="622.86" y1="656.03" x2="631.17" y2="662.84"/><line class="cls-10" x1="623.42" y1="670.7" x2="631.17" y2="662.84"/><ellipse class="cls-10" cx="865" cy="263.81" rx="35.17" ry="33.28"/><line class="cls-10" x1="865.28" y1="263.55" x2="865.28" y2="230.53"/><line class="cls-10" x1="900.17" y1="263.55" x2="865.28" y2="263.55"/><path class="cls-10" d="M859.59,242.12l4.8-11.4c.6,0,1.52,1.74,2.12,1.76a40.72,40.72,0,0,0,4.29,10.06"/><line class="cls-10" x1="891.86" y1="256.74" x2="900.17" y2="263.55"/><line class="cls-10" x1="892.42" y1="271.41" x2="900.17" y2="263.55"/><ellipse class="cls-10" cx="86" cy="400.06" rx="35.17" ry="33.28"/><line class="cls-10" x1="86.28" y1="399.8" x2="86.28" y2="366.79"/><line class="cls-10" x1="121.17" y1="399.8" x2="86.28" y2="399.8"/><path class="cls-10" d="M80.59,378.37l4.8-11.4c.6,0,1.52,1.75,2.12,1.76a40.72,40.72,0,0,0,4.29,10.06"/><line class="cls-10" x1="112.86" y1="392.99" x2="121.17" y2="399.8"/><line class="cls-10" x1="113.42" y1="407.66" x2="121.17" y2="399.8"/><ellipse class="cls-10" cx="854" cy="485.22" rx="35.17" ry="33.28"/><line class="cls-10" x1="854.28" y1="484.96" x2="854.28" y2="451.94"/><line class="cls-10" x1="889.17" y1="484.96" x2="854.28" y2="484.96"/><path class="cls-10" d="M848.59,463.53l4.8-11.4c.6,0,1.52,1.74,2.12,1.76A40.72,40.72,0,0,0,859.8,464"/><line class="cls-10" x1="880.86" y1="478.15" x2="889.17" y2="484.96"/><line class="cls-10" x1="881.42" y1="492.82" x2="889.17" y2="484.96"/><ellipse class="cls-10" cx="1097" cy="313.01" rx="35.17" ry="33.28"/><line class="cls-10" x1="1097.28" y1="312.75" x2="1097.28" y2="279.74"/><line class="cls-10" x1="1132.17" y1="312.75" x2="1097.28" y2="312.75"/><path class="cls-10" d="M1091.59,291.32l4.8-11.4c.6,0,1.52,1.75,2.12,1.76a40.72,40.72,0,0,0,4.29,10.06"/><line class="cls-10" x1="1123.86" y1="305.94" x2="1132.17" y2="312.75"/><line class="cls-10" x1="1124.42" y1="320.61" x2="1132.17" y2="312.75"/><ellipse class="cls-10" cx="1097" cy="675.41" rx="35.17" ry="33.28"/><line class="cls-10" x1="1097.28" y1="675.14" x2="1097.28" y2="642.13"/><line class="cls-10" x1="1132.17" y1="675.14" x2="1097.28" y2="675.14"/><path class="cls-10" d="M1091.59,653.71l4.8-11.39c.6,0,1.52,1.74,2.12,1.75a40.72,40.72,0,0,0,4.29,10.06"/><line class="cls-10" x1="1123.86" y1="668.33" x2="1132.17" y2="675.14"/><line class="cls-10" x1="1124.42" y1="683" x2="1132.17" y2="675.14"/></g></g></svg>