<?xml version="1.0" encoding="utf-8"?>
<!-- Generator: Adobe Illustrator 23.0.1, SVG Export Plug-In . SVG Version: 6.00 Build 0)  -->
<svg version="1.1" id="Layer_1" xmlns="http://www.w3.org/2000/svg" xmlns:xlink="http://www.w3.org/1999/xlink" x="0px" y="0px"
	 viewBox="0 0 50.1 428.6" style="enable-background:new 0 0 50.1 428.6;" xml:space="preserve">
<style type="text/css">
	.st0{fill:#0062E9;}
</style>
<title>Asset 5</title>
<g>
	<g id="Layer_1-2">
		<path class="st0" d="M1.4,428.3c-0.2,0-0.5-0.1-0.6-0.2c-0.2-0.1-0.3-0.3-0.2-0.5L24.2,105c0-0.3,0.4-0.6,0.8-0.6c0,0,0,0,0,0
			c0.5,0,0.9,0.3,0.9,0.6c0,0,0,0,0,0l23.7,322.5c0,0.2-0.1,0.4-0.2,0.5c-0.2,0.1-0.4,0.2-0.6,0.2H1.4z"/>
		<path class="st0" d="M25.1,104.8c0.2,0,0.4,0.1,0.4,0.2c0,0,0,0,0,0l23.7,322.5c0,0.1,0,0.2-0.1,0.2c-0.1,0.1-0.2,0.1-0.3,0.1H1.4
			c-0.1,0-0.2,0-0.3-0.1C1,427.7,1,427.6,1,427.6L24.7,105C24.7,104.9,24.8,104.8,25.1,104.8C25,104.8,25,104.8,25.1,104.8
			 M25.1,104c-0.7,0-1.3,0.4-1.4,1c0,0,0,0,0,0L0,427.5c0,0.6,0.5,1.1,1.3,1.1c0,0,0,0,0.1,0h47.4c0.8,0,1.4-0.5,1.4-1
			c0,0,0,0,0-0.1L26.4,105C26.4,104.4,25.8,104,25.1,104C25.1,104,25.1,104,25.1,104z"/>
	</g>
</g>
</svg>
